<svg xmlns="http://www.w3.org/2000/svg" xmlns:xlink="http://www.w3.org/1999/xlink" width="660" height="233.68"><rect width="660" height="233.68" rx="5" ry="5" class="a"/><svg y="0%" x="0%"><circle cx="20" cy="20" r="6" fill="#ff5f58"/><circle cx="40" cy="20" r="6" fill="#ffbd2e"/><circle cx="60" cy="20" r="6" fill="#18c132"/></svg><svg height="173.68" viewBox="0 0 62 17.368" width="620" x="15" xmlns="http://www.w3.org/2000/svg" xmlns:xlink="http://www.w3.org/1999/xlink" y="50"><style>@keyframes i{0%{transform:translateX(0)}1.6%{transform:translateX(-124px)}4.6%{transform:translateX(-248px)}17.3%{transform:translateX(-310px)}19.3%{transform:translateX(-372px)}21.8%{transform:translateX(-434px)}22.7%{transform:translateX(-496px)}27.8%{transform:translateX(-558px)}29.8%{transform:translateX(-620px)}32%{transform:translateX(-682px)}33%{transform:translateX(-744px)}35%{transform:translateX(-806px)}36.8%{transform:translateX(-868px)}37.6%{transform:translateX(-930px)}39.8%{transform:translateX(-992px)}40.6%{transform:translateX(-1054px)}42.9%{transform:translateX(-1116px)}43.7%{transform:translateX(-1178px)}45.7%{transform:translateX(-1240px)}47.8%{transform:translateX(-1302px)}49.9%{transform:translateX(-1364px)}50.8%{transform:translateX(-1426px)}52%{transform:translateX(-1488px)}53.8%{transform:translateX(-1550px)}54.8%{transform:translateX(-1612px)}56.5%{transform:translateX(-1674px)}58.3%{transform:translateX(-1736px)}59.9%{transform:translateX(-1860px)}60%{transform:translateX(-1922px)}69.1%{transform:translateX(-1984px)}71.7%{transform:translateX(-2046px)}74.9%{transform:translateX(-2108px)}77.3%{transform:translateX(-2232px)}78.5%{transform:translateX(-2294px)}80.8%{transform:translateX(-2356px)}82.1%{transform:translateX(-2418px)}85.3%{transform:translateX(-2604px)}88.2%{transform:translateX(-2728px)}to{transform:translateX(-2790px)}}.a{fill:#282d35}.f,.g{white-space:pre}.f{fill:#71bef2;font-weight:700}.g{fill:#b9c0cb}</style><g font-family="Monaco,Consolas,Menlo,'Bitstream Vera Sans Mono','Powerline Symbols',monospace" font-size="1.67"><defs><symbol id="1"><text y="1.67" class="f">$</text></symbol><symbol id="2"><text y="1.67" class="f">$</text><text x="2.004" y="1.67" class="g">./password-generator-cli</text></symbol><symbol id="3"><text y="1.67" class="g">How</text><text x="4.008" y="1.67" class="g">long</text><text x="9.018" y="1.67" class="g">do</text><text x="12.024" y="1.67" class="g">you</text><text x="16.032" y="1.67" class="g">want</text><text x="21.042" y="1.67" class="g">your</text><text x="26.052" y="1.67" class="g">password</text><text x="35.07" y="1.67" class="g">to</text><text x="38.076" y="1.67" class="g">be?</text><text x="42.084" y="1.67" class="g">:</text><text x="44.088" y="1.67" class="g">8</text></symbol><symbol id="4"><text y="1.67" class="g">Do</text><text x="3.006" y="1.67" class="g">you</text><text x="7.014" y="1.67" class="g">want</text><text x="12.024" y="1.67" class="g">letters?</text><text x="21.042" y="1.67" class="g">[Y/n]</text><text x="27.054" y="1.67" class="g">:</text><text x="29.058" y="1.67" class="g">y</text></symbol><symbol id="5"><text y="1.67" class="g">Do</text><text x="3.006" y="1.67" class="g">you</text><text x="7.014" y="1.67" class="g">want</text><text x="12.024" y="1.67" class="g">numbers?</text><text x="21.042" y="1.67" class="g">[Y/n]</text><text x="27.054" y="1.67" class="g">:</text><text x="29.058" y="1.67" class="g">y</text></symbol><symbol id="6"><text y="1.67" class="g">Do</text><text x="3.006" y="1.67" class="g">you</text><text x="7.014" y="1.67" class="g">want</text><text x="12.024" y="1.67" class="g">special</text><text x="20.04" y="1.67" class="g">characters?</text><text x="32.064" y="1.67" class="g">[Y/n]</text><text x="38.076" y="1.67" class="g">:</text><text x="40.08" y="1.67" class="g">y</text></symbol><symbol id="7"><text y="1.67" class="g">Your</text><text x="5.01" y="1.67" class="g">new</text><text x="9.018" y="1.67" class="g">password</text><text x="18.036" y="1.67" class="g">is:</text><text x="22.044" y="1.67" class="g">n533(78-</text></symbol><symbol id="a"><path fill="transparent" d="M0 0h62v8H0z"/></symbol></defs><path class="a" d="M0 0h62v17.368H0z"/><g style="animation-duration:9.703991s;animation-iteration-count:infinite;animation-name:i;animation-timing-function:steps(1,end)"><svg width="2852"><svg><use xlink:href="#a"/></svg><svg x="62"><use xlink:href="#a"/></svg><svg x="124"><use xlink:href="#a"/></svg><svg x="186"><use xlink:href="#a"/><use xlink:href="#1"/></svg><svg x="248"><use xlink:href="#a"/><use xlink:href="#1"/></svg><svg x="310"><use xlink:href="#a"/><text y="1.67" class="f">$</text><text x="2.004" y="1.67" class="g">.</text></svg><svg x="372"><use xlink:href="#a"/><text y="1.67" class="f">$</text><text x="2.004" y="1.67" class="g">./</text></svg><svg x="434"><use xlink:href="#a"/><text y="1.67" class="f">$</text><text x="2.004" y="1.67" class="g">./p</text></svg><svg x="496"><use xlink:href="#a"/><text y="1.67" class="f">$</text><text x="2.004" y="1.67" class="g">./pa</text></svg><svg x="558"><use xlink:href="#a"/><text y="1.67" class="f">$</text><text x="2.004" y="1.67" class="g">./pas</text></svg><svg x="620"><use xlink:href="#a"/><text y="1.67" class="f">$</text><text x="2.004" y="1.67" class="g">./pass</text></svg><svg x="682"><use xlink:href="#a"/><text y="1.67" class="f">$</text><text x="2.004" y="1.67" class="g">./passw</text></svg><svg x="744"><use xlink:href="#a"/><text y="1.67" class="f">$</text><text x="2.004" y="1.67" class="g">./passwo</text></svg><svg x="806"><use xlink:href="#a"/><text y="1.67" class="f">$</text><text x="2.004" y="1.67" class="g">./passwor</text></svg><svg x="868"><use xlink:href="#a"/><text y="1.67" class="f">$</text><text x="2.004" y="1.67" class="g">./password</text></svg><svg x="930"><use xlink:href="#a"/><text y="1.67" class="f">$</text><text x="2.004" y="1.67" class="g">./password-</text></svg><svg x="992"><use xlink:href="#a"/><text y="1.67" class="f">$</text><text x="2.004" y="1.67" class="g">./password-g</text></svg><svg x="1054"><use xlink:href="#a"/><text y="1.67" class="f">$</text><text x="2.004" y="1.67" class="g">./password-ge</text></svg><svg x="1116"><use xlink:href="#a"/><text y="1.67" class="f">$</text><text x="2.004" y="1.67" class="g">./password-gen</text></svg><svg x="1178"><use xlink:href="#a"/><text y="1.67" class="f">$</text><text x="2.004" y="1.67" class="g">./password-gene</text></svg><svg x="1240"><use xlink:href="#a"/><text y="1.67" class="f">$</text><text x="2.004" y="1.67" class="g">./password-gener</text></svg><svg x="1302"><use xlink:href="#a"/><text y="1.67" class="f">$</text><text x="2.004" y="1.67" class="g">./password-genera</text></svg><svg x="1364"><use xlink:href="#a"/><text y="1.67" class="f">$</text><text x="2.004" y="1.67" class="g">./password-generat</text></svg><svg x="1426"><use xlink:href="#a"/><text y="1.67" class="f">$</text><text x="2.004" y="1.67" class="g">./password-generato</text></svg><svg x="1488"><use xlink:href="#a"/><text y="1.67" class="f">$</text><text x="2.004" y="1.67" class="g">./password-generator</text></svg><svg x="1550"><use xlink:href="#a"/><text y="1.67" class="f">$</text><text x="2.004" y="1.67" class="g">./password-generator-</text></svg><svg x="1612"><use xlink:href="#a"/><text y="1.67" class="f">$</text><text x="2.004" y="1.67" class="g">./password-generator-c</text></svg><svg x="1674"><use xlink:href="#a"/><text y="1.67" class="f">$</text><text x="2.004" y="1.67" class="g">./password-generator-cl</text></svg><svg x="1736"><use xlink:href="#a"/><use xlink:href="#2"/></svg><svg x="1798"><use xlink:href="#a"/><use xlink:href="#2"/></svg><svg x="1860"><use xlink:href="#a"/><use xlink:href="#2"/></svg><svg x="1922"><use xlink:href="#a"/><use xlink:href="#2"/><text y="3.841" class="g">How</text><text x="4.008" y="3.841" class="g">long</text><text x="9.018" y="3.841" class="g">do</text><text x="12.024" y="3.841" class="g">you</text><text x="16.032" y="3.841" class="g">want</text><text x="21.042" y="3.841" class="g">your</text><text x="26.052" y="3.841" class="g">password</text><text x="35.07" y="3.841" class="g">to</text><text x="38.076" y="3.841" class="g">be?</text><text x="42.084" y="3.841" class="g">:</text></svg><svg x="1984"><use xlink:href="#a"/><use xlink:href="#2"/><use xlink:href="#3" y="2.171"/></svg><svg x="2046"><use xlink:href="#a"/><use xlink:href="#2"/><use xlink:href="#3" y="2.171"/><text y="6.012" class="g">Do</text><text x="3.006" y="6.012" class="g">you</text><text x="7.014" y="6.012" class="g">want</text><text x="12.024" y="6.012" class="g">letters?</text><text x="21.042" y="6.012" class="g">[Y/n]</text><text x="27.054" y="6.012" class="g">:</text></svg><svg x="2108"><use xlink:href="#a"/><use xlink:href="#2"/><use xlink:href="#3" y="2.171"/><use xlink:href="#4" y="4.342"/></svg><svg x="2170"><use xlink:href="#a"/><use xlink:href="#2"/><use xlink:href="#3" y="2.171"/><use xlink:href="#4" y="4.342"/></svg><svg x="2232"><use xlink:href="#a"/><use xlink:href="#2"/><use xlink:href="#3" y="2.171"/><use xlink:href="#4" y="4.342"/><text y="8.183" class="g">Do</text><text x="3.006" y="8.183" class="g">you</text><text x="7.014" y="8.183" class="g">want</text><text x="12.024" y="8.183" class="g">numbers?</text><text x="21.042" y="8.183" class="g">[Y/n]</text><text x="27.054" y="8.183" class="g">:</text></svg><svg x="2294"><use xlink:href="#a"/><use xlink:href="#2"/><use xlink:href="#3" y="2.171"/><use xlink:href="#4" y="4.342"/><use xlink:href="#5" y="6.513"/></svg><svg x="2356"><use xlink:href="#a"/><use xlink:href="#2"/><use xlink:href="#3" y="2.171"/><use xlink:href="#4" y="4.342"/><use xlink:href="#5" y="6.513"/><text y="10.354" class="g">Do</text><text x="3.006" y="10.354" class="g">you</text><text x="7.014" y="10.354" class="g">want</text><text x="12.024" y="10.354" class="g">special</text><text x="20.04" y="10.354" class="g">characters?</text><text x="32.064" y="10.354" class="g">[Y/n]</text><text x="38.076" y="10.354" class="g">:</text></svg><svg x="2418"><use xlink:href="#a"/><use xlink:href="#2"/><use xlink:href="#3" y="2.171"/><use xlink:href="#4" y="4.342"/><use xlink:href="#5" y="6.513"/><use xlink:href="#6" y="8.684"/></svg><svg x="2480"><use xlink:href="#a"/><use xlink:href="#2"/><use xlink:href="#3" y="2.171"/><use xlink:href="#4" y="4.342"/><use xlink:href="#5" y="6.513"/><use xlink:href="#6" y="8.684"/><use xlink:href="#7" y="10.855"/></svg><svg x="2542"><use xlink:href="#a"/><use xlink:href="#2"/><use xlink:href="#3" y="2.171"/><use xlink:href="#4" y="4.342"/><use xlink:href="#5" y="6.513"/><use xlink:href="#6" y="8.684"/><use xlink:href="#7" y="10.855"/></svg><svg x="2604"><use xlink:href="#a"/><use xlink:href="#2"/><use xlink:href="#3" y="2.171"/><use xlink:href="#4" y="4.342"/><use xlink:href="#5" y="6.513"/><use xlink:href="#6" y="8.684"/><use xlink:href="#7" y="10.855"/></svg><svg x="2666"><use xlink:href="#a"/><use xlink:href="#2"/><use xlink:href="#3" y="2.171"/><use xlink:href="#4" y="4.342"/><use xlink:href="#5" y="6.513"/><use xlink:href="#6" y="8.684"/><use xlink:href="#7" y="10.855"/><use xlink:href="#1" y="13.026"/></svg><svg x="2728"><use xlink:href="#a"/><use xlink:href="#2"/><use xlink:href="#3" y="2.171"/><use xlink:href="#4" y="4.342"/><use xlink:href="#5" y="6.513"/><use xlink:href="#6" y="8.684"/><use xlink:href="#7" y="10.855"/><use xlink:href="#1" y="13.026"/></svg><svg x="2790"><use xlink:href="#a"/><use xlink:href="#2"/><use xlink:href="#3" y="2.171"/><use xlink:href="#4" y="4.342"/><use xlink:href="#5" y="6.513"/><use xlink:href="#6" y="8.684"/><use xlink:href="#7" y="10.855"/><use xlink:href="#1" y="13.026"/></svg></svg></g></g></svg></svg>